# Blender 4.3.2
# www.blender.org
mtllib hand_gripper.mtl
o hand_gripper
v -0.059044 0.010816 -0.044305
v -0.059009 -0.010019 -0.044432
v -0.077439 0.010950 -0.056667
v -0.078127 0.010940 -0.066813
v -0.077981 -0.010016 -0.057838
v -0.059255 0.010928 -0.068124
v -0.059247 -0.009833 -0.068205
v -0.078258 -0.009849 -0.066954
v -0.112794 0.006253 -0.055577
v -0.109037 0.008988 -0.041178
v -0.112583 -0.005189 -0.041309
v -0.109808 -0.008328 -0.041393
v -0.095021 -0.008420 -0.041553
v -0.111344 -0.007364 -0.055648
v -0.112830 -0.004865 -0.055689
v -0.112447 0.006431 -0.041283
v -0.110319 0.009029 -0.055289
v -0.109564 -0.008428 -0.055371
v -0.063614 -0.017134 -0.089271
v -0.051666 0.017510 -0.097908
v 0.005082 0.025981 0.075770
v -0.051985 -0.017585 -0.097407
v -0.064432 -0.016735 0.090129
v -0.006295 0.016804 -0.091906
v -0.005691 0.000041 -0.103990
v 0.012610 0.003617 -0.101158
v 0.006396 0.028011 0.041784
v -0.065190 0.015472 -0.090706
v 0.025659 -0.001917 -0.045520
v -0.005973 0.031636 -0.000579
v -0.056027 0.014017 -0.100091
v -0.065962 0.000113 0.092808
v -0.030322 -0.017033 -0.096802
v -0.051584 -0.016230 -0.099538
v 0.003873 -0.016558 -0.085132
v -0.056617 -0.018556 0.094602
v -0.043308 -0.020671 0.093692
v -0.006214 -0.031590 -0.000559
v -0.014340 -0.022708 0.093736
v -0.004368 -0.023869 0.090401
v 0.006350 -0.028015 0.042042
v -0.001180 -0.031616 -0.001861
v 0.025925 0.001500 -0.045870
v 0.006910 0.022761 0.080174
v -0.001153 0.031597 -0.001987
v 0.024606 0.003637 -0.083586
v 0.023884 0.003215 -0.087766
v 0.005118 0.016533 -0.082236
v 0.001206 0.016812 -0.087533
v -0.063082 0.017255 -0.090700
v -0.062307 0.001617 0.097471
v -0.065731 -0.013425 -0.091927
v -0.058393 0.018449 0.092016
v 0.017161 -0.000032 -0.099451
v 0.024449 -0.003810 -0.082966
v -0.064913 -0.015718 -0.091780
v -0.058341 -0.009942 0.100035
v 0.004120 0.022733 0.085434
v -0.049301 0.016013 -0.099629
v 0.008029 -0.003495 -0.102716
v -0.027082 0.000016 0.098496
v -0.065168 0.012567 0.093713
v -0.058119 0.004494 0.100426
v -0.005563 -0.016956 -0.091603
v 0.009199 0.000017 -0.103743
v -0.056894 -0.012506 -0.100188
v -0.054970 -0.015805 -0.099416
v 0.004163 0.000337 0.086562
v 0.007322 0.000834 0.080260
v 0.005526 -0.022377 0.083355
v 0.007399 -0.022959 0.077901
v -0.007575 0.000314 0.094615
v -0.054673 -0.015551 0.100200
v -0.045870 -0.016218 0.100285
v -0.008942 -0.021343 0.094333
v -0.044942 -0.019269 0.098494
v -0.054305 -0.017129 0.099067
v 0.005031 -0.026034 0.075298
v 0.005051 -0.024515 0.081703
v -0.000980 0.021325 0.090927
v 0.025525 -0.001843 -0.084002
v -0.022121 0.017054 -0.095525
v -0.065953 0.000506 -0.092945
v -0.064683 -0.013139 -0.094063
v -0.063078 -0.000470 -0.096656
v -0.058489 0.009324 -0.099983
v 0.023979 -0.003076 -0.087973
v 0.012628 -0.003602 -0.101195
v -0.058448 -0.017607 -0.093848
v -0.058623 -0.001191 -0.100301
v -0.065688 -0.013540 0.092672
v -0.064556 -0.015397 0.092906
v -0.002684 -0.021483 0.091795
v -0.020914 -0.019802 0.097011
v 0.007156 -0.024817 0.074378
v -0.003501 -0.025448 0.081180
v 0.001232 -0.024729 0.085740
v -0.000577 0.000173 0.090995
v 0.008964 0.003430 -0.102598
v -0.064500 0.014617 -0.093442
v -0.054734 0.016632 -0.098554
v -0.065712 0.012988 -0.092496
v -0.043814 0.018193 0.099518
v 0.001933 -0.022314 0.088250
v -0.050588 0.019229 0.097261
v -0.064332 0.016767 0.090252
v -0.063617 0.016046 0.093209
v -0.004608 0.023556 0.091166
v -0.005197 0.025270 0.082065
v -0.009877 0.023026 0.092897
v 0.001833 0.024495 0.085892
v 0.006932 0.024650 0.076668
v -0.055735 0.014623 0.100168
v -0.009538 0.020658 0.094668
v -0.054115 0.016995 0.099363
v -0.065690 0.014422 0.091276
v 0.024962 0.000627 -0.087975
v -0.024627 0.019067 0.097697
v 0.025870 0.000868 -0.082548
v -0.021756 0.021822 0.095442
v -0.061095 0.010401 0.059689
v -0.061060 0.010387 0.035914
v -0.061083 -0.010360 0.059783
v -0.079364 -0.010495 0.048483
v -0.111095 -0.008693 0.033247
v -0.061076 -0.010449 0.035963
v -0.079965 -0.010400 0.058633
v -0.113295 0.007778 0.047598
v -0.079917 0.010479 0.049482
v -0.080116 0.010389 0.058600
v -0.114506 -0.006138 0.033359
v -0.114778 0.005278 0.047673
v -0.114732 -0.005840 0.047654
v -0.112257 -0.008616 0.047369
v -0.097094 0.008730 0.033357
v -0.114653 0.005481 0.033289
v -0.111518 0.008841 0.047298
v -0.111882 0.008623 0.033323
vn -0.0656 0.0038 -0.9978
vn 1.0000 0.0017 -0.0088
vn 0.0053 -1.0000 -0.0079
vn -0.0307 -0.9986 0.0432
vn -0.0657 0.0039 -0.9978
vn -0.0656 0.0039 -0.9978
vn 0.0108 -0.0174 0.9998
vn 0.0083 1.0000 -0.0014
vn -0.9998 0.0030 0.0173
vn -0.7469 0.6649 0.0099
vn -0.0582 0.9983 0.0030
vn -0.0293 -0.0020 0.9996
vn -0.0292 -0.0019 0.9996
vn -0.8596 -0.5110 0.0033
vn -0.8596 -0.5109 0.0032
vn -0.5125 -0.8587 -0.0029
vn -0.7468 0.6649 0.0098
vn -0.2324 -0.9726 0.0101
vn -0.2458 -0.9693 0.0010
vn -0.1531 -0.9867 0.0540
vn 0.1647 0.7237 -0.6702
vn 0.0281 0.9867 -0.1598
vn 0.6554 0.7535 -0.0513
vn 0.0284 0.9972 0.0697
vn -0.0872 0.9909 -0.1029
vn 0.0364 -0.8463 -0.5314
vn -0.0178 -0.9971 0.0736
vn 0.0296 -0.9866 -0.1607
vn -0.1370 -0.9624 0.2344
vn 0.0533 0.9848 -0.1651
vn 0.2790 0.9475 -0.1561
vn 0.0364 -0.8463 -0.5315
vn 0.0153 -0.3038 -0.9526
vn 0.2861 -0.3555 -0.8898
vn 0.2113 0.7459 -0.6317
vn 0.0940 0.6192 -0.7796
vn -0.0787 0.9846 0.1564
vn 0.1044 0.9925 0.0633
vn -0.9998 0.0191 -0.0000
vn -0.6204 0.1047 0.7773
vn -0.7728 0.4142 0.4808
vn -0.2057 0.9338 -0.2926
vn -0.6458 0.7635 -0.0024
vn -0.3413 0.8908 0.2999
vn 0.1974 -0.7350 -0.6487
vn -0.3571 -0.8804 -0.3121
vn -0.0677 -0.2643 -0.9621
vn -0.0079 0.0243 0.9997
vn -0.0867 -0.5941 0.7997
vn -0.0334 -0.0266 0.9991
vn 0.8095 -0.5871 0.0035
vn 0.1055 -0.9924 0.0633
vn 0.5319 -0.8292 -0.1716
vn -0.1369 -0.9624 0.2344
vn 0.0230 -0.9910 0.1322
vn 0.5348 0.8265 -0.1757
vn 0.4856 0.8153 -0.3156
vn -0.0066 0.2467 -0.9691
vn 0.0611 0.7931 -0.6060
vn -0.8380 0.4237 -0.3438
vn -0.7934 -0.0240 -0.6083
vn -0.8478 -0.4915 0.1989
vn -0.9418 -0.3362 -0.0000
vn -0.3239 0.8785 0.3512
vn 0.5319 -0.8383 -0.1194
vn 0.0095 -0.2836 -0.9589
vn -0.0697 -0.9883 0.1358
vn -0.0681 -0.9637 0.2582
vn 0.2852 -0.9328 0.2203
vn 0.7813 -0.5728 0.2480
vn 0.9892 -0.0112 0.1459
vn 0.8943 -0.0095 0.4474
vn 0.9444 -0.0294 0.3275
vn 0.9891 0.0192 0.1460
vn 0.7617 0.3604 -0.5384
vn -0.4630 0.6081 -0.6449
vn 0.4779 -0.7925 -0.3788
vn -0.7834 -0.0219 0.6212
vn -0.7355 -0.6776 -0.0019
vn -0.2441 0.9698 -0.0000
vn 0.9051 0.3903 -0.1689
vn 0.9266 -0.2461 -0.2844
vn 0.0268 -0.7205 0.6929
vn -0.6871 -0.0755 0.7226
vn -0.4113 -0.7848 0.4637
vn 0.1952 0.0163 0.9806
vn 0.1948 0.0160 0.9807
vn 0.8942 -0.0095 0.4475
vn 0.3769 -0.7178 0.5854
vn 0.4597 0.0117 0.8880
vn 0.5440 0.5389 0.6432
vn 0.6144 0.7063 0.3516
vn 0.9919 -0.1268 0.0007
vn 0.4704 0.8388 0.2741
vn -0.7933 -0.0240 -0.6083
vn -0.6299 0.0316 -0.7761
vn 0.0931 0.0298 0.9952
vn 0.0389 0.0163 0.9991
vn -0.0554 0.3547 0.9333
vn -0.1235 -0.8266 -0.5490
vn 0.1230 -0.7637 0.6338
vn 0.6827 0.0154 0.7305
vn 0.3749 -0.0358 0.9264
vn 0.2852 -0.9328 0.2204
vn -0.0118 -0.9858 0.1677
vn 0.3979 0.0361 0.9167
vn -0.6098 -0.1011 -0.7861
vn -0.6299 0.0316 -0.7760
vn -0.4110 -0.8283 0.3807
vn 0.9179 0.3465 -0.1934
vn 0.1929 0.6052 0.7724
vn -0.6916 0.0989 -0.7155
vn -0.0616 0.9823 0.1769
vn 0.0482 0.6021 0.7969
vn 0.0798 0.0174 0.9967
vn -0.3413 0.8908 0.3000
vn -0.4887 0.5608 0.6683
vn 1.0000 0.0006 0.0015
vn -0.0323 -0.9982 -0.0509
vn -0.0524 0.9986 0.0088
vn 0.0045 1.0000 -0.0006
vn -0.2815 0.6660 0.6908
vn 0.0022 0.0090 -1.0000
vn 0.0019 -1.0000 0.0037
vn -1.0000 -0.0041 -0.0087
vn -0.5998 -0.7989 -0.0450
vn -0.0323 -0.9982 -0.0508
vn -0.0322 -0.9982 -0.0508
vn -0.5135 0.8581 -0.0000
vn -0.8601 0.5101 -0.0002
vn -0.3226 0.2189 0.9209
vn -0.5134 0.8582 -0.0000
vn -0.9998 -0.0128 -0.0155
s 1
f 6//1 1//2 2//3
f 2//3 5//4 7//5
f 7//5 5//4 8//6
f 1//2 13//7 2//3
f 4//8 8//6 9//9
f 2//3 7//5 6//1
f 17//10 3//11 4//8
f 3//11 10//12 1//2
f 17//10 10//12 3//11
f 12//7 2//3 13//7
f 1//2 10//12 13//7
f 10//12 11//13 13//7
f 4//8 3//11 1//2
f 4//8 1//2 6//1
f 4//8 6//1 8//6
f 8//6 15//14 9//9
f 14//15 15//14 8//6
f 12//7 11//13 14//15
f 2//3 12//7 5//4
f 4//8 9//9 17//10
f 6//1 7//5 8//6
f 5//4 18//16 8//6
f 18//16 14//15 8//6
f 9//9 11//13 16//17
f 15//14 11//13 9//9
f 10//12 16//17 11//13
f 16//17 10//12 17//10
f 11//13 12//7 13//7
f 14//15 11//13 15//14
f 12//7 18//16 5//4
f 16//17 17//10 9//9
f 14//15 18//16 12//7
f 23//18 19//19 38//20
f 82//21 20//22 45//23
f 21//24 45//23 30//25
f 33//26 42//27 22//28
f 42//27 38//20 22//28
f 36//29 23//18 38//20
f 24//30 45//23 49//31
f 30//25 45//23 20//22
f 82//21 45//23 24//30
f 34//32 25//33 65//34
f 26//35 99//36 24//30
f 109//37 21//24 30//25
f 27//38 45//23 21//24
f 32//39 62//40 116//41
f 50//42 28//43 106//44
f 64//45 42//27 33//26
f 19//19 89//46 38//20
f 89//46 22//28 38//20
f 66//47 25//33 34//32
f 73//48 76//49 74//50
f 29//51 41//52 55//53
f 37//54 38//20 96//55
f 45//23 46//56 48//57
f 50//42 30//25 20//22
f 31//58 59//59 25//33
f 26//35 49//31 47//56
f 32//39 116//41 102//60
f 102//60 83//61 32//39
f 91//62 32//39 83//61
f 83//61 52//63 91//62
f 109//37 30//25 105//64
f 33//26 22//28 34//32
f 55//53 42//27 35//65
f 60//66 64//45 33//26
f 42//27 55//53 41//52
f 36//29 37//54 76//49
f 37//54 36//29 38//20
f 37//54 96//55 40//67
f 37//54 39//68 76//49
f 39//68 37//54 40//67
f 42//27 41//52 78//69
f 42//27 78//69 96//55
f 42//27 96//55 38//20
f 95//70 41//52 29//51
f 43//71 69//72 71//73
f 69//72 43//71 44//74
f 71//73 95//70 29//51
f 46//56 45//23 27//38
f 54//75 26//35 47//56
f 48//57 46//56 47//56
f 49//31 48//57 47//56
f 49//31 45//23 48//57
f 101//76 50//42 20//22
f 54//75 88//77 65//34
f 59//59 101//76 20//22
f 25//33 59//59 65//34
f 51//78 32//39 91//62
f 32//39 51//78 62//40
f 23//18 91//62 56//79
f 52//63 56//79 91//62
f 50//42 53//80 30//25
f 53//80 50//42 106//44
f 53//80 105//64 30//25
f 117//81 54//75 47//56
f 87//82 55//53 35//65
f 56//79 19//19 23//18
f 74//50 76//49 94//83
f 57//84 51//78 91//62
f 76//49 77//85 36//29
f 72//86 61//87 94//83
f 78//69 41//52 95//70
f 68//88 104//89 70//73
f 80//90 58//91 111//92
f 81//93 43//71 29//51
f 43//71 112//94 44//74
f 82//21 59//59 20//22
f 60//66 34//32 65//34
f 54//75 65//34 26//35
f 21//24 109//37 111//92
f 116//41 28//43 102//60
f 106//44 28//43 116//41
f 83//61 84//95 52//63
f 31//58 25//33 86//96
f 118//97 61//87 72//86
f 51//78 63//98 62//40
f 74//50 113//99 63//98
f 35//65 64//45 88//77
f 88//77 64//45 60//66
f 88//77 60//66 65//34
f 56//79 67//100 89//46
f 67//100 66//47 34//32
f 84//95 67//100 56//79
f 67//100 84//95 66//47
f 33//26 34//32 60//66
f 67//100 34//32 22//28
f 22//28 89//46 67//100
f 63//98 51//78 57//84
f 29//51 55//53 81//93
f 72//86 94//83 75//101
f 61//87 74//50 94//83
f 44//74 58//91 68//88
f 104//89 98//102 93//103
f 68//88 70//73 69//72
f 69//72 70//73 71//73
f 29//51 43//71 71//73
f 27//38 112//94 43//71
f 27//38 21//24 112//94
f 79//104 104//89 97//105
f 46//56 27//38 43//71
f 114//106 118//97 72//86
f 113//99 62//40 63//98
f 64//45 35//65 42//27
f 90//107 84//95 85//108
f 73//48 74//50 57//84
f 57//84 74//50 63//98
f 40//67 75//101 39//68
f 77//85 76//49 73//48
f 91//62 92//109 57//84
f 92//109 73//48 57//84
f 92//109 36//29 77//85
f 58//91 80//90 68//88
f 97//105 78//69 79//104
f 75//101 40//67 93//103
f 80//90 72//86 98//102
f 98//102 72//86 93//103
f 119//110 43//71 81//93
f 46//56 43//71 119//110
f 49//31 26//35 24//30
f 59//59 31//58 101//76
f 99//36 65//34 59//59
f 99//36 82//21 24//30
f 83//61 85//108 84//95
f 90//107 85//108 86//96
f 25//33 66//47 90//107
f 90//107 86//96 25//33
f 108//111 111//92 109//37
f 87//82 54//75 117//81
f 117//81 81//93 87//82
f 54//75 87//82 88//77
f 35//65 88//77 87//82
f 19//19 56//79 89//46
f 84//95 56//79 52//63
f 84//95 90//107 66//47
f 81//93 55//53 87//82
f 92//109 77//85 73//48
f 92//109 91//62 23//18
f 36//29 92//109 23//18
f 72//86 75//101 93//103
f 94//83 39//68 75//101
f 39//68 94//83 76//49
f 71//73 79//104 95//70
f 78//69 97//105 96//55
f 97//105 40//67 96//55
f 80//90 98//102 68//88
f 68//88 98//102 104//89
f 69//72 44//74 68//88
f 59//59 82//21 99//36
f 99//36 26//35 65//34
f 100//112 86//96 102//60
f 86//96 85//108 102//60
f 31//58 100//112 101//76
f 28//43 100//112 102//60
f 110//113 120//114 114//106
f 103//115 74//50 61//87
f 113//99 74//50 103//115
f 108//111 80//90 111//92
f 119//110 81//93 117//81
f 104//89 79//104 70//73
f 78//69 95//70 79//104
f 104//89 93//103 40//67
f 97//105 104//89 40//67
f 31//58 86//96 100//112
f 102//60 85//108 83//61
f 50//42 100//112 28//43
f 107//116 105//64 53//80
f 53//80 106//44 107//116
f 115//117 105//64 107//116
f 108//111 110//113 114//106
f 105//64 120//114 109//37
f 120//114 110//113 109//37
f 110//113 108//111 109//37
f 108//111 114//106 80//90
f 113//99 107//116 62//40
f 106//44 116//41 107//116
f 79//104 71//73 70//73
f 111//92 58//91 112//94
f 112//94 58//91 44//74
f 112//94 21//24 111//92
f 115//117 113//99 103//115
f 114//106 120//114 118//97
f 105//64 103//115 120//114
f 103//115 105//64 115//117
f 80//90 114//106 72//86
f 113//99 115//117 107//116
f 116//41 62//40 107//116
f 47//56 119//110 117//81
f 50//42 101//76 100//112
f 118//97 103//115 61//87
f 47//56 46//56 119//110
f 103//115 118//97 120//114
f 123//118 126//119 122//118
f 122//118 129//120 121//121
f 121//121 129//120 130//122
f 126//119 135//123 122//118
f 127//124 130//122 133//125
f 122//118 121//121 123//118
f 134//126 124//127 127//124
f 124//127 125//128 126//119
f 134//126 125//128 124//127
f 138//129 122//118 135//123
f 126//119 125//128 135//123
f 125//128 136//130 135//123
f 127//124 124//127 126//119
f 127//124 126//119 123//118
f 127//124 123//118 130//122
f 130//122 132//125 133//125
f 128//131 132//125 130//122
f 138//129 136//130 128//131
f 122//118 138//129 129//120
f 127//124 133//125 134//126
f 123//118 121//121 130//122
f 129//120 137//132 130//122
f 137//132 128//131 130//122
f 133//125 136//130 131//133
f 132//125 136//130 133//125
f 125//128 131//133 136//130
f 131//133 125//128 134//126
f 136//130 138//129 135//123
f 128//131 136//130 132//125
f 138//129 137//132 129//120
f 131//133 134//126 133//125
f 128//131 137//132 138//129
